<?xml version="1.0" standalone="no"?><!DOCTYPE svg PUBLIC "-//W3C//DTD SVG 1.1//EN" "http://www.w3.org/Graphics/SVG/1.1/DTD/svg11.dtd">
<svg t="1579236890893" class="icon" viewBox="0 0 1024 1024" version="1.1" xmlns="http://www.w3.org/2000/svg" p-id="6774"
     width="200" height="200"><defs><style type="text/css"></style></defs><path d="M84.3 645.9c5.7-50.1 47.4-89.2 98.6-89.2s81.2 20.8 106.8 78.4l10.6 10.8c43.5 67.3 118.6 112 204.1 112 134.6 0 243.7-110.2 243.7-246.1S639 265.7 504.5 265.7c-94.6 0-176.4 54.6-216.8 134.1l-4.9 6.9c-12.6 48.5-48.6 82.9-99.9 82.9s-93.1-39.4-98.6-89.8l-1.1-15.5c4.2-16.6 1.3-17.2 7.3-32.9 0.4-1 0.8-2.1 1.2-3.1C156.3 181.9 316.5 63.9 504.2 63.9c244.9 0 443.4 200.5 443.4 447.8S749 959.6 504.2 959.6c-164.5 0-307.9-90.7-384.4-225.1-24.4-29.6-36.5-46-36.5-77.2 0-1.4 0.4-2.7 0.4-4.1l0.6-7.3z" fill="#00BFFF" p-id="6775"></path></svg>