<?xml version="1.0" standalone="no"?><!DOCTYPE svg PUBLIC "-//W3C//DTD SVG 1.1//EN" "http://www.w3.org/Graphics/SVG/1.1/DTD/svg11.dtd">
<svg t="1579160198485" class="icon" viewBox="0 0 1024 1024" version="1.1" xmlns="http://www.w3.org/2000/svg" p-id="2578"
     width="200" height="200"><defs><style type="text/css"></style></defs><path d="M960 544c0 247.04-200.96 448-448 448-111.36 0-217.92-41.28-300.48-115.84a31.584 31.584 0 0 1-4.48-42.24c55.36-77.12 130.56-131.2 223.68-160.32 256.32-81.28 363.84-241.28 302.72-451.2a32.064 32.064 0 0 1 49.92-34.56C895.68 272.96 960 402.88 960 544z" fill="#16BCD4" p-id="2579"></path><path d="M449.92 734.4c-79.68 25.28-143.68 71.04-191.04 136.64-5.12 7.68-13.44 12.16-22.4 13.12-1.28 0.32-2.24 0.32-3.52 0.32a31.04 31.04 0 0 1-21.44-8.32A448.48 448.48 0 0 1 64 544c0-97.92 31.04-191.04 89.92-268.8 1.92-2.56 4.16-4.8 6.72-6.72l197.44-143.68c2.56-1.92 5.44-3.2 8.32-4.16C413.12 104.32 462.08 96 512 96c99.2 0 193.28 31.68 271.68 92.16 5.44 4.16 9.28 9.92 11.2 16.32 33.6 115.84 67.52 399.36-344.96 529.92z" fill="#2197F3" p-id="2580"></path><path d="M416 192a160 160 0 0 1-128 156.8V576c0 17.6-14.4 32-32 32s-32-14.4-32-32v-227.2A160 160 0 1 1 416 192z" fill="#3F51B5" p-id="2581"></path></svg>