<?xml version="1.0" standalone="no"?><!DOCTYPE svg PUBLIC "-//W3C//DTD SVG 1.1//EN" "http://www.w3.org/Graphics/SVG/1.1/DTD/svg11.dtd">
<svg t="1579166078091" class="icon" viewBox="0 0 1024 1024" version="1.1" xmlns="http://www.w3.org/2000/svg" p-id="3911"
     width="200" height="200"><defs><style type="text/css"></style></defs><path d="M907.52 128H116.48A73.386667 73.386667 0 0 0 42.666667 201.813333v493.44A73.386667 73.386667 0 0 0 116.48 768h265.6l-34.986667 155.52s-6.4 39.04 34.773334 18.346667L673.493333 768h234.666667A73.386667 73.386667 0 0 0 981.333333 695.253333V201.813333A73.386667 73.386667 0 0 0 907.52 128z m-384 254.08a64 64 0 1 1-64 64 64 64 0 0 1 62.933333-63.573333z m-254.72 128a64 64 0 1 1 64-64 64 64 0 0 1-65.066667 64.426667z m486.613333 0a64 64 0 1 1 64-64 64 64 0 0 1-65.066666 64.426667z" fill="#00BFFF" p-id="3912"></path></svg>