<?xml version="1.0" standalone="no"?><!DOCTYPE svg PUBLIC "-//W3C//DTD SVG 1.1//EN" "http://www.w3.org/Graphics/SVG/1.1/DTD/svg11.dtd">
<svg t="1579166177933" class="icon" viewBox="0 0 1024 1024" version="1.1" xmlns="http://www.w3.org/2000/svg" p-id="5955"
     width="200" height="200"><defs><style type="text/css"></style></defs><path d="M947.94072 787.852652c-7.100722-14.4542-14.923898-28.486798-23.37129-42.090631-27.637454-63.025429-82.635045-117.359918-155.049309-155.941631a484.835314 484.835314 0 0 0-100.512204-48.095392c62.913888-47.849798 103.632265-123.372865 103.632265-208.51501 0-144.69652-117.299543-261.996063-261.996063-261.996063-0.414439 0-0.821715 0.029676-1.236154 0.031722-0.414439-0.002047-0.821715-0.031722-1.236153-0.031722-144.69652 0-261.996063 117.299543-261.996063 261.996063 0 85.46244 40.936341 161.345712 104.251365 209.169926a484.826104 484.826104 0 0 0-98.66002 47.439452c-72.414263 38.581714-127.411855 92.917226-155.048285 155.941632-8.447393 13.603833-16.271592 27.636431-23.371291 42.090631-25.177426 51.255361-4.493338 108.782565 38.942941 136.086421a84.045161 84.045161 0 0 0 49.475831 16.065907h697.755658a84.049255 84.049255 0 0 0 49.476855-16.06693c43.435255-27.302833 64.119343-84.829014 38.941917-136.084375z" fill="#3190e8" p-id="5956"></path></svg>