<?xml version="1.0" standalone="no"?><!DOCTYPE svg PUBLIC "-//W3C//DTD SVG 1.1//EN" "http://www.w3.org/Graphics/SVG/1.1/DTD/svg11.dtd">
<svg t="1579254398476" class="icon" viewBox="0 0 1024 1024" version="1.1" xmlns="http://www.w3.org/2000/svg" p-id="2733"
     width="200" height="200"><defs><style type="text/css"></style></defs><path d="M485.376 48.08704l-361.82016 208.896a53.22752 53.22752 0 0 0-26.624 46.12096v417.792c0 19.02592 10.15808 36.59776 26.624 46.12096l361.82016 208.896a53.28896 53.28896 0 0 0 53.248 0l361.82016-208.896a53.22752 53.22752 0 0 0 26.624-46.12096V303.104c0-19.02592-10.15808-36.59776-26.624-46.12096L538.624 48.08704a53.28896 53.28896 0 0 0-53.248 0zM650.3424 591.872L512 671.76448l-138.36288-79.872V432.128L512 352.256l138.36288 79.872v159.744z" fill="#3296FA" p-id="2734"></path></svg>